<svg width="197" height="30" viewBox="0 0 197 30" fill="none" xmlns="http://www.w3.org/2000/svg">
<path d="M0.48 0.599998H16.8V4.12H10.496V23H6.816V4.12H0.48V0.599998ZM27.5188 15.576V7H30.9748V23H27.5188V20.952C26.4521 22.5947 24.7988 23.416 22.5588 23.416C20.7028 23.416 19.2094 22.8293 18.0788 21.656C16.9694 20.4613 16.4148 18.8507 16.4148 16.824V7H19.8708V16.472C19.8708 17.6667 20.1908 18.584 20.8308 19.224C21.4708 19.864 22.3454 20.184 23.4548 20.184C24.7134 20.184 25.7054 19.8 26.4308 19.032C27.1561 18.2427 27.5188 17.0907 27.5188 15.576ZM38.472 7V9.688C39.3467 7.704 40.9893 6.712 43.4 6.712V10.456C42.0987 10.3707 40.9467 10.6907 39.944 11.416C38.9627 12.12 38.472 13.2933 38.472 14.936V23H35.016V7H38.472ZM52.8015 14.84L60.0975 23H55.9695L49.4095 15.608V23H45.9535V0.599998H49.4095V14.072L55.6175 7H59.8415L52.8015 14.84ZM79.8943 6.584C81.7076 6.584 83.1689 7.17067 84.2783 8.344C85.3876 9.51733 85.9423 11.096 85.9423 13.08V23H82.4863V13.304C82.4863 12.216 82.2089 11.3627 81.6543 10.744C81.0996 10.1253 80.3423 9.816 79.3823 9.816C78.2943 9.816 77.4409 10.1787 76.8223 10.904C76.2036 11.608 75.8943 12.6533 75.8943 14.04V23H72.4383V13.304C72.4383 12.1947 72.1716 11.3413 71.6383 10.744C71.1263 10.1253 70.3903 9.816 69.4303 9.816C68.3636 9.816 67.4996 10.1787 66.8383 10.904C66.1983 11.6293 65.8783 12.6747 65.8783 14.04V23H62.4223V7H65.8783V8.92C66.9023 7.36267 68.4276 6.584 70.4543 6.584C72.5023 6.584 74.0169 7.42667 74.9983 9.112C76.0436 7.42667 77.6756 6.584 79.8943 6.584ZM105.097 16.472H92.361C92.617 17.6667 93.193 18.5947 94.089 19.256C95.0063 19.9173 96.137 20.248 97.481 20.248C99.2943 20.248 100.67 19.5867 101.609 18.264L104.457 19.928C102.9 22.2533 100.564 23.416 97.449 23.416C94.8677 23.416 92.7663 22.6267 91.145 21.048C89.545 19.448 88.745 17.432 88.745 15C88.745 12.632 89.5343 10.6373 91.113 9.016C92.6703 7.39467 94.697 6.584 97.193 6.584C99.5183 6.584 101.438 7.40533 102.953 9.048C104.468 10.6907 105.225 12.6853 105.225 15.032C105.225 15.4587 105.182 15.9387 105.097 16.472ZM92.329 13.656H101.737C101.502 12.3973 100.969 11.4267 100.137 10.744C99.3263 10.0613 98.3343 9.72 97.161 9.72C95.881 9.72 94.8143 10.072 93.961 10.776C93.1077 11.48 92.5637 12.44 92.329 13.656ZM116.682 6.584C118.538 6.584 120.021 7.18133 121.13 8.376C122.261 9.54933 122.826 11.1493 122.826 13.176V23H119.37V13.528C119.37 12.3333 119.05 11.416 118.41 10.776C117.77 10.136 116.895 9.816 115.786 9.816C114.527 9.816 113.535 10.2107 112.81 11C112.085 11.768 111.722 12.9093 111.722 14.424V23H108.266V7H111.722V9.048C112.789 7.40533 114.442 6.584 116.682 6.584Z" fill="#059784"/>
<path d="M130.451 13.432V19.48H140.371V23H126.771V0.599998H140.211V4.12H130.451V9.944H139.411V13.432H130.451ZM151.836 14.808L157.82 23H153.82L149.852 17.528L145.852 23H141.82L147.836 14.776L142.14 7H146.14L149.82 12.056L153.5 7H157.532L151.836 14.808ZM169.197 6.584C171.373 6.584 173.25 7.40533 174.829 9.048C176.386 10.6693 177.165 12.6533 177.165 15C177.165 17.368 176.386 19.3627 174.829 20.984C173.272 22.6053 171.394 23.416 169.197 23.416C166.786 23.416 164.92 22.52 163.597 20.728V29.4H160.141V7H163.597V9.304C164.898 7.49067 166.765 6.584 169.197 6.584ZM165.037 18.68C165.997 19.64 167.202 20.12 168.653 20.12C170.104 20.12 171.309 19.64 172.269 18.68C173.229 17.6987 173.709 16.472 173.709 15C173.709 13.528 173.229 12.312 172.269 11.352C171.309 10.3707 170.104 9.88 168.653 9.88C167.202 9.88 165.997 10.3707 165.037 11.352C164.077 12.312 163.597 13.528 163.597 15C163.597 16.4507 164.077 17.6773 165.037 18.68ZM193.833 20.984C192.212 22.6053 190.217 23.416 187.849 23.416C185.481 23.416 183.487 22.6053 181.865 20.984C180.223 19.3413 179.401 17.3467 179.401 15C179.401 12.6533 180.223 10.6587 181.865 9.016C183.487 7.39467 185.481 6.584 187.849 6.584C190.217 6.584 192.212 7.39467 193.833 9.016C195.476 10.6587 196.297 12.6533 196.297 15C196.297 17.3467 195.476 19.3413 193.833 20.984ZM182.857 15C182.857 16.4507 183.337 17.656 184.297 18.616C185.257 19.576 186.441 20.056 187.849 20.056C189.257 20.056 190.441 19.576 191.401 18.616C192.361 17.656 192.841 16.4507 192.841 15C192.841 13.5493 192.361 12.344 191.401 11.384C190.441 10.424 189.257 9.944 187.849 9.944C186.441 9.944 185.257 10.424 184.297 11.384C183.337 12.344 182.857 13.5493 182.857 15Z" fill="#BC213A"/>
</svg>
