<svg width="112" height="48" viewBox="0 0 112 48" fill="none" xmlns="http://www.w3.org/2000/svg">
<g clip-path="url(#clip0_402_2990)">
<mask id="mask0_402_2990" style="mask-type:luminance" maskUnits="userSpaceOnUse" x="0" y="0" width="112" height="48">
<path d="M112 0H0V48H112V0Z" fill="white"/>
</mask>
<g mask="url(#mask0_402_2990)">
<path d="M32.6383 24.9648L36.0175 47.852H34.4167C32.6762 47.8336 31.0014 47.2988 29.696 46.3448C28.3905 45.3907 27.5411 44.0806 27.3019 42.6521L24.9904 27.4944H22.3226V20.952H24.9904C25.3902 20.9536 25.7863 20.8891 26.1556 20.7624C26.525 20.6357 26.8602 20.4494 27.1417 20.2142C27.4232 19.979 27.6453 19.6997 27.7951 19.3926C27.945 19.0856 28.0195 18.7569 28.0144 18.4257V9.50883C28.0195 9.17763 27.945 8.84891 27.7951 8.54183C27.6453 8.23476 27.4232 7.95549 27.1417 7.72031C26.8602 7.48513 26.525 7.29876 26.1556 7.17207C25.7863 7.04538 25.3902 6.98092 24.9904 6.98244H22.145C21.7857 4.6976 20.4625 2.59175 18.4094 1.03763L17.5202 0.294434H24.9904C27.9227 0.316986 30.7259 1.29747 32.7907 3.02285C34.8555 4.74822 36.0151 7.07904 36.0175 9.50883V18.4257C36.027 19.6496 35.7319 20.8619 35.1504 21.987C34.569 23.1121 33.7138 24.1258 32.6383 24.9648Z" fill="#00822C"/>
<path d="M38.4192 0.294434V47.852H46.601V7.13203C46.5859 5.33253 45.7213 3.60942 44.1921 2.33151C42.663 1.05359 40.5909 0.322403 38.4192 0.294434Z" fill="#00822C"/>
<path d="M17.6062 2.67204C15.8326 1.03763 13.3376 0.294434 10.136 0.294434C6.93436 0.294434 4.44429 1.03763 2.66581 2.67204C0.887331 4.15843 -0.00191168 6.38724 -0.00191168 9.21124V39.0824C-0.166904 41.466 0.78928 43.8099 2.66581 45.6216C4.44429 47.256 6.93436 47.9993 10.136 47.9993C13.3376 47.9993 15.8278 47.256 17.6062 45.6216C19.3856 44.1345 20.2739 41.9064 20.2739 39.0824V9.21124C20.2739 6.38724 19.3847 4.15843 17.6062 2.67204ZM12.4533 39.2312C12.4533 41.3112 11.3863 41.6088 10.1408 41.6088C9.07395 41.6088 7.82844 41.3112 7.82844 39.2312V8.91123C7.82844 6.83124 8.89532 6.53364 10.1408 6.53364C11.2077 6.53364 12.4533 6.83124 12.4533 8.91123V39.2312Z" fill="#00822C"/>
<path d="M112 0.2945V7.1313H105.952V47.8513C104.919 47.861 103.893 47.7099 102.928 47.4057C101.885 47.0495 100.938 46.5242 100.144 45.8606C99.3501 45.197 98.7239 44.4086 98.3027 43.5417C98.1614 43.3669 98.0985 43.1566 98.125 42.9473C97.9474 42.5018 97.9474 42.0554 97.7698 41.6097V7.1297H87.8094C88.0416 5.4609 88.9145 3.89802 90.2996 2.6713C92.078 1.0361 94.568 0.293701 97.7698 0.293701L112 0.2945Z" fill="#00822C"/>
<path d="M87.8111 8.9168V27.4936L78.9178 0H68.0682V39.3832H75.8948V12.632L85.1434 41.0176C85.7331 42.9464 87.0888 44.6549 88.9922 45.8679C90.8956 47.081 93.2363 47.7283 95.6377 47.7056V8.9168H87.8111Z" fill="#00822C"/>
<path d="M57.0152 41.4624V27.3441H62.7069V20.804H57.0152V6.53443H65.73V0.294434H48.8334V40.868C48.7909 42.6065 49.5644 44.2909 50.991 45.5661C52.4176 46.8414 54.3859 47.6082 56.4813 47.7048H75.6951V41.3144H57.0152V41.4624Z" fill="#EE4037"/>
</g>
</g>
<defs>
<clipPath id="clip0_402_2990">
<rect width="112" height="48" fill="white"/>
</clipPath>
</defs>
</svg>
