<svg width="48" height="48" viewBox="0 0 48 48" fill="none" xmlns="http://www.w3.org/2000/svg">
<g clip-path="url(#clip0_387_1445)">
<path fill-rule="evenodd" clip-rule="evenodd" d="M28 21C26.6739 21 25.4021 21.5268 24.4645 22.4645C23.5268 23.4021 23 24.6739 23 26V32H25V26C25 25.2043 25.3161 24.4413 25.8787 23.8787C26.4413 23.3161 27.2043 23 28 23C28.7957 23 29.5587 23.3161 30.1213 23.8787C30.6839 24.4413 31 25.2043 31 26V32H33V26C33 24.6739 32.4732 23.4021 31.5355 22.4645C30.5979 21.5268 29.3261 21 28 21ZM23.0503 21.0503C24.363 19.7375 26.1435 19 28 19C29.8565 19 31.637 19.7375 32.9497 21.0503C34.2625 22.363 35 24.1435 35 26V33C35 33.5523 34.5523 34 34 34H30C29.4477 34 29 33.5523 29 33V26C29 25.7348 28.8946 25.4804 28.7071 25.2929C28.5196 25.1054 28.2652 25 28 25C27.7348 25 27.4804 25.1054 27.2929 25.2929C27.1054 25.4804 27 25.7348 27 26V33C27 33.5523 26.5523 34 26 34H22C21.4477 34 21 33.5523 21 33V26C21 24.1435 21.7375 22.363 23.0503 21.0503ZM13 21C13 20.4477 13.4477 20 14 20H18C18.5523 20 19 20.4477 19 21V33C19 33.5523 18.5523 34 18 34H14C13.4477 34 13 33.5523 13 33V21ZM15 22V32H17V22H15Z" fill="#3F4946"/>
<path fill-rule="evenodd" clip-rule="evenodd" d="M16 15C15.4477 15 15 15.4477 15 16C15 16.5523 15.4477 17 16 17C16.5523 17 17 16.5523 17 16C17 15.4477 16.5523 15 16 15ZM13 16C13 14.3431 14.3431 13 16 13C17.6569 13 19 14.3431 19 16C19 17.6569 17.6569 19 16 19C14.3431 19 13 17.6569 13 16Z" fill="#3F4946"/>
</g>
<defs>
<clipPath id="clip0_387_1445">
<rect x="4" y="4" width="40" height="40" rx="2" fill="white"/>
</clipPath>
</defs>
</svg>
